Coordinates
version=1
nRows=17
nColumns=36
inDegrees=yes

Units are S.I. units (second, meters, Newtons, ...)
If the header above contains a line with 'inDegrees', this indicates whether rotational values are in degrees (yes) or radians (no).

endheader
time	pelvis_tilt	pelvis_list	pelvis_rotation	pelvis_tx	pelvis_ty	pelvis_tz	hip_flexion_r	hip_adduction_r	hip_rotation_r	knee_angle_r	knee_angle_r_beta	ankle_angle_r	subtalar_angle_r	mtp_angle_r	hip_flexion_l	hip_adduction_l	hip_rotation_l	knee_angle_l	knee_angle_l_beta	ankle_angle_l	subtalar_angle_l	mtp_angle_l	lumbar_extension	lumbar_bending	lumbar_rotation	arm_flex_r	arm_add_r	arm_rot_r	elbow_flex_r	pro_sup_r	arm_flex_l	arm_add_l	arm_rot_l	elbow_flex_l	pro_sup_l
      0.34000000	     -0.04011888	     -2.73012754	      1.17167326	      0.47839110	      0.96669436	     -0.15030294	     -4.81698601	      9.80503965	      3.90978050	      2.30948409	      0.04030810	      8.10200897	     -6.89694392	     -6.56140788	     29.12167749	     -4.53827531	     -1.97298104	     45.29685691	      0.79057929	     -0.71034075	    -11.43383949	     -6.56140788	     -6.27517971	      0.51410619	      9.32119049	      8.80511179	     -5.21520614	     -2.51116824	     36.83373196	    104.25983425	     -5.24500163	     -2.30755191	    -11.33484999	     18.58837678	     99.03231005
      0.35000000	      0.04205131	     -2.70777994	      0.68830502	      0.48858744	      0.96621766	     -0.15029823	     -5.81157249	      9.69033769	      3.97237098	      1.98280780	      0.03460652	      9.03060199	     -5.79651905	     -6.66203122	     28.79790248	     -4.49070268	     -2.56420478	     41.30638875	      0.72093249	     -1.11145493	    -10.76951356	     -6.66203122	     -6.42005923	      0.56808375	      9.82328102	      9.11761713	     -5.22433976	     -2.66311727	     37.28969865	    104.89129910	     -6.72605563	     -1.93978803	    -14.26183070	     18.97606420	     98.40491411
      0.36000000	     -0.25554878	     -2.75340282	      0.28892492	      0.49877076	      0.96503758	     -0.15044319	     -6.37717666	      9.65576243	      4.28718527	      1.66238504	      0.02901409	      9.33536573	     -5.57545466	     -6.67291064	     28.85272232	     -4.42120677	     -2.95439986	     37.21981009	      0.64960823	     -1.28398129	     -9.87510624	     -6.67291064	     -6.05567966	      0.72640732	     10.26924299	      9.26827805	     -5.28378098	     -2.62405975	     37.73729627	    104.88618722	     -8.10720060	     -1.92630830	    -14.60337490	     18.49148333	     98.28171171
      0.37000000	     -0.36009655	     -2.77847013	     -0.10871276	      0.50903066	      0.96399048	     -0.15062431	     -7.15843661	      9.58225945	      4.51690556	      1.35572258	      0.02366182	      9.84134634	     -5.19296356	     -6.68701523	     28.53762437	     -4.36119181	     -3.54122915	     32.89566001	      0.57413758	     -1.52209243	     -8.81934177	     -6.68701523	     -5.93772917	      0.87103597	     10.77485615	      9.42077272	     -5.34065734	     -2.68622388	     38.21868355	    104.88196719	     -9.39749477	     -1.89161074	    -15.13629845	     18.13666168	     98.13207037
      0.38000000	     -0.48374391	     -2.86226688	     -0.42566990	      0.51933415	      0.96275657	     -0.15095453	     -7.88714383	      9.56269894	      4.48730038	      1.11745068	      0.01950319	     10.50298208	     -4.35380261	     -6.71270379	     28.17813703	     -4.31843945	     -4.13157673	     28.49249963	      0.49728793	     -1.54595471	     -7.59210970	     -6.71270379	     -5.81631174	      1.06515391	     11.13275754	      9.55501994	     -5.33587630	     -2.91396728	     38.77647458	    104.92499828	    -10.72647623	     -1.77132700	    -16.10798556	     18.05501739	     97.95380820
      0.39000000	     -0.72617656	     -2.98440382	     -0.65105505	      0.52976709	      0.96116305	     -0.15150837	     -8.43353156	      9.57422629	      4.08470518	      0.98045882	      0.01711223	     11.39619778	     -2.91934475	     -6.76859423	     27.90324256	     -4.26621657	     -4.72753251	     24.10309298	      0.42067833	     -1.22118340	     -5.93082547	     -6.76859423	     -5.53174602	      1.30871211	     11.35337199	      9.64490584	     -5.30017506	     -3.17053630	     39.27417270	    105.13154730	    -12.17193547	     -1.52101973	    -18.00408491	     18.45114543	     97.80731404
      0.40000000	     -0.98908119	     -3.09880331	     -0.88351147	      0.54015989	      0.95944635	     -0.15203040	     -8.97379869	      9.59207796	      4.18976801	      0.83434539	      0.01456207	     11.82448971	     -2.64205291	     -6.78761473	     27.56713047	     -4.18477643	     -5.35906020	     19.69468905	      0.34373717	     -1.16888140	     -4.43152950	     -6.78761473	     -5.22065222	      1.54575889	     11.56880176	      9.75040098	     -5.30632137	     -3.15121471	     39.69172696	    105.13204401	    -13.46493325	     -1.45297556	    -18.54735714	     18.32402508	     97.72712968
      0.41000000	     -1.33426474	     -3.25913387	     -1.05473925	      0.55066213	      0.95748892	     -0.15274579	     -9.40754906	      9.65373339	      4.20785491	      0.72294003	      0.01261768	     12.30067607	     -2.27015508	     -6.80218829	     27.31538131	     -4.09919778	     -5.88490469	     15.49427741	      0.27042616	     -0.89338901	     -2.69134977	     -6.80218829	     -4.79225487	      1.83085738	     11.78473436	      9.75706757	     -5.34720134	     -3.19884384	     40.08580720	    105.10459447	    -14.69305449	     -1.39706990	    -19.04680402	     18.21000597	     97.62715474
      0.42000000	     -1.56461232	     -3.39964016	     -1.22112838	      0.56127449	      0.95553458	     -0.15345273	     -9.92611256	      9.67305277	      3.92672210	      0.69933383	      0.01220568	     13.09984244	     -1.02088141	     -6.85082423	     27.02087587	     -4.08827258	     -7.05049754	     11.79987249	      0.20594663	      0.09685335	      0.20867073	     -6.85082423	     -4.52752108	      2.07101094	     11.83103781	      9.83742577	     -5.27411678	     -3.35832589	     40.57141277	    105.30279756	    -15.99293380	     -1.17441257	    -20.61758553	     18.45298952	     97.65134802
      0.43000000	     -2.05636134	     -3.62438436	     -1.38057913	      0.57183911	      0.95310017	     -0.15424434	    -10.15750739	      9.80297190	      4.10756612	      0.68545647	      0.01196347	     13.32413027	     -0.96853281	     -6.85679300	     27.08330270	     -4.05016603	     -7.30045452	      8.57732691	      0.14970260	      0.45868617	      1.22984456	     -6.85679300	     -3.89229082	      2.44573078	     11.85309453	      9.83544007	     -5.25627470	     -3.34861065	     40.93958005	    105.27376487	    -17.20799664	     -1.08242543	    -20.84376740	     18.09476090	     97.57578112
      0.44000000	     -2.08977760	     -3.66553511	     -1.56935767	      0.58249818	      0.95136459	     -0.15487592	    -10.88461903	      9.70696661	      4.19228240	      0.66448623	      0.01159747	     13.97671670	     -0.49125107	     -6.89222403	     26.67074993	     -3.96844997	     -8.39661828	      5.90761881	      0.10310740	      1.21634076	      4.15458980	     -6.89222403	     -3.90324820	      2.50470891	     12.05692476	      9.88221187	     -5.22756928	     -3.40347587	     41.33857097	    105.38529754	    -18.12885112	     -0.98014653	    -21.84208922	     17.97257488	     97.63296321
      0.45000000	     -2.45130252	     -3.81045539	     -1.68747885	      0.59304597	      0.94902344	     -0.15566124	    -11.20064062	      9.74899905	      4.47219697	      0.72713195	      0.01269085	     14.21498708	     -0.48584169	     -6.89794777	     26.79909872	     -3.91574459	     -8.43366447	      4.05557271	      0.07078310	      1.68121238	      4.87012817	     -6.89794777	     -3.48983375	      2.72094742	     12.03654991	      9.91872775	     -5.18486842	     -3.39925182	     41.65722373	    105.37628785	    -19.07412420	     -0.91587180	    -22.06964294	     17.55146334	     97.57486240
      0.46000000	     -2.56387992	     -3.89196681	     -1.86440802	      0.60367310	      0.94709991	     -0.15625009	    -11.77237158	      9.70903955	      4.79381951	      0.81680125	      0.01425587	     14.60986180	     -0.55563195	     -6.93046800	     26.80816409	     -3.95170723	     -9.18580151	      3.09631394	      0.05404087	      2.59979100	      6.63765288	     -6.93046800	     -3.40810680	      2.80548917	     12.17617704	      9.93820237	     -5.14572508	     -3.44548648	     41.99783373	    105.41671104	    -19.78594945	     -0.83521010	    -22.86354877	     17.19225899	     97.60795333
      0.47000000	     -2.75072926	     -3.97247486	     -2.00761024	      0.61433250	      0.94507497	     -0.15688820	    -12.18912250	      9.67497187	      4.99730777	      1.01861497	      0.01777819	     14.81168143	     -0.59557505	     -6.93470263	     26.95411228	     -3.96632752	     -9.16408850	      2.77803074	      0.04848578	      2.98257297	      6.64171342	     -6.93470263	     -3.21300315	      2.89001550	     12.16719449	      9.99121037	     -5.04503268	     -3.45322496	     42.23541989	    105.38835483	    -20.50980069	     -0.79068074	    -23.02780664	     16.85143993	     97.54886523
      0.48000000	     -2.85198765	     -3.99737159	     -2.15413310	      0.62502800	      0.94328557	     -0.15751449	    -12.60541076	      9.57844971	      5.03616739	      1.38110102	      0.02410476	     14.87059793	     -0.62881711	     -6.93631184	     27.04289261	     -3.97332383	     -9.07666458	      3.00228930	      0.05239983	      3.05661524	      6.58765159	     -6.93631184	     -3.15591785	      2.87829870	     12.29815093	     10.00156161	     -5.01615190	     -3.46291318	     42.32994187	    105.33411033	    -21.04218288	     -0.84007096	    -23.11328813	     16.66547038	     97.48635421
      0.49000000	     -2.97436942	     -3.97270873	     -2.34674250	      0.63578249	      0.94149176	     -0.15810327	    -12.96218193	      9.42307976	      5.59032416	      1.86773481	      0.03259812	     15.45715018	     -0.98987678	     -6.94728631	     27.19720622	     -3.94814182	     -8.73587255	      3.77243764	      0.06584146	      3.60490935	      5.47401045	     -6.94728631	     -3.07404523	      2.81594127	     12.32032763	      9.97842121	     -4.84768980	     -3.59572820	     42.61593811	    105.36157766	    -21.43587497	     -0.79450868	    -23.64544427	     16.34551945	     97.44889374
      0.50000000	     -3.14230848	     -3.90592355	     -2.48987641	      0.64659599	      0.93978989	     -0.15879401	    -13.12344007	      9.24325496	      5.73075820	      2.58761988	      0.04516249	     15.62263075	     -1.31980130	     -6.96539372	     27.35685185	     -3.83744443	     -8.07095775	      4.67150080	      0.08153307	      3.07375327	      3.68386411	     -6.96539372	     -2.92233283	      2.67276339	     12.36791439	      9.88290295	     -4.65851191	     -3.84230996	     42.75763566	    105.39046171	    -21.82123381	     -0.74925753	    -24.38150736	     16.48599708	     97.47579040
